# Blender 4.2.4 LTS
# www.blender.org
mtllib sword_pedestal_time.mtl
o pedestal_Cube.002
v 0.937500 0.005000 0.718750
v 0.812500 0.255000 0.625000
v 0.187500 0.255000 0.625000
v 0.062500 0.005000 0.718750
v 0.187500 0.255000 0.375000
v 0.062500 0.005000 0.281250
v 0.812500 0.255000 0.375000
v 0.937500 0.005000 0.281250
vn -0.8944 0.4472 -0.0000
vn -0.0000 0.3511 -0.9363
vn 0.8944 0.4472 -0.0000
vn -0.0000 -1.0000 -0.0000
vn -0.0000 0.3511 0.9363
vn -0.0000 1.0000 -0.0000
vt 1.000000 0.750000
vt 0.937500 1.000000
vt 0.671875 1.000000
vt 0.609375 0.750000
vt 1.000000 0.500000
vt 0.843750 0.750000
vt 0.140625 0.750000
vt 0.000000 0.500000
vt 1.000000 0.250035
vt -0.001532 0.251267
vt 0.000000 0.250000
vt 1.000000 0.250000
vt 0.843750 0.500000
vt 0.140625 0.500000
vt 0.000000 1.000000
vt 0.000000 0.734375
vt 0.625000 0.734375
vt 0.625000 1.000000
s 1
usemtl texture.001
f 4/1/1 3/2/1 5/3/1 6/4/1
f 6/5/2 5/6/2 7/7/2 8/8/2
f 8/1/3 7/2/3 2/3/3 1/4/3
f 4/9/4 6/5/4 8/8/4 1/10/4
f 4/11/5 1/12/5 2/13/5 3/14/5
f 2/15/6 7/16/6 5/17/6 3/18/6
