# Blender v2.92.0 OBJ File: 'sword_pedestal_twilight.blend'
# www.blender.org
mtllib sword_pedestal_twilight.mtl
o sword_pedestal_twilight
v 0.578864 0.244546 0.514546
v 0.443864 0.044546 0.489545
v 0.418864 0.244546 0.514546
v 0.553864 0.044546 0.489545
v 0.418864 0.244546 0.469547
v 0.578864 0.244546 0.469547
v 0.208864 0.244546 0.694547
v 0.398864 0.244546 0.489545
v 0.788864 0.244546 0.694547
v 0.208864 0.244546 0.289545
v 0.788864 0.244546 0.289545
v 0.788864 0.244546 0.289545
v 0.998854 -0.005454 0.844536
v 0.998854 -0.005454 0.144558
v 0.788864 0.244546 0.694547
v 0.208864 0.244546 0.694547
v 0.003874 -0.005454 0.144558
v 0.003874 -0.005454 0.844536
v 0.208864 0.244546 0.289545
v 0.003874 -0.005454 0.844536
v 0.788864 0.244546 0.694547
v 0.208864 0.244546 0.694547
v 0.998854 -0.005454 0.844536
v 0.208864 0.244546 0.289545
v 0.998854 -0.005454 0.144558
v 0.003874 -0.005454 0.144558
v 0.788864 0.244546 0.289545
v 0.598864 0.244546 0.489545
v 0.498864 0.204545 0.264545
v 0.648864 0.164545 0.239544
v 0.498864 0.164545 0.239544
v 0.648864 0.204545 0.264545
v 0.353864 0.204545 0.264545
v 0.498864 0.164545 0.239544
v 0.353864 0.164545 0.239544
v 0.498864 0.204545 0.264545
v 0.498864 0.164545 0.239544
v 0.723864 0.114545 0.209546
v 0.498864 0.114545 0.209546
v 0.723864 0.164545 0.239544
v 0.283864 0.164545 0.239544
v 0.498864 0.114545 0.209546
v 0.283864 0.114545 0.209546
v 0.498864 0.164545 0.239544
vt 0.320312 0.765625
vt 0.367188 0.734375
vt 0.375000 0.765625
vt 0.328125 0.734375
vt 0.375000 0.703125
vt 0.320312 0.703125
vt 0.445312 1.000000
vt 0.382812 0.734375
vt 0.250000 1.000000
vt 0.445312 0.484375
vt 0.250000 0.484375
vt 0.406250 0.484375
vt 0.023438 0.015625
vt 0.476562 0.015625
vt 0.089844 0.484375
vt 0.406250 0.484375
vt 0.023438 0.015625
vt 0.476562 0.015625
vt 0.089844 0.484375
vt 0.023438 0.015625
vt 0.406250 0.484375
vt 0.089844 0.484375
vt 0.476562 0.015625
vt 0.406250 0.484375
vt 0.023438 0.015625
vt 0.476562 0.015625
vt 0.089844 0.484375
vt 0.316406 0.734375
vt 0.750000 0.984375
vt 0.500000 0.500000
vt 0.750000 0.500000
vt 0.500000 0.984375
vt 0.750000 0.500000
vt 0.500000 0.000000
vt 0.750000 0.000000
vt 0.500000 0.500000
vt 0.750000 0.984375
vt 0.500000 0.500000
vt 0.750000 0.500000
vt 0.500000 0.984375
vt 0.750000 0.500000
vt 0.500000 0.000000
vt 0.750000 0.000000
vt 0.500000 0.500000
vt 0.121094 0.234375
vt 0.382812 0.234375
vt 0.382812 0.453125
vt 0.121094 0.453125
vn 0.0000 0.1240 -0.9923
vn 0.0000 0.0995 0.9950
vn 0.0000 1.0000 -0.0000
vn 0.7657 0.6432 -0.0000
vn -0.7733 0.6341 -0.0000
vn 0.0000 0.5145 0.8575
vn -0.0000 0.5017 -0.8651
vn 0.6983 0.1571 0.6984
vn -0.7691 0.1730 -0.6153
vn 0.7691 0.1730 -0.6153
vn -0.6983 0.1571 0.6984
vn -0.0000 0.5300 -0.8480
vn -0.0000 0.5145 -0.8575
vn 0.0000 -1.0000 0.0000
usemtl texture
s 1
f 1/1/1 2/2/1 3/3/1
f 2/2/1 1/1/1 4/4/1
f 5/5/2 4/4/2 6/6/2
f 4/4/2 5/5/2 2/2/2
f 7/7/3 3/3/3 8/8/3
f 3/3/3 7/7/3 9/9/3
f 10/10/3 8/8/3 5/5/3
f 8/8/3 10/10/3 7/7/3
f 11/11/3 5/5/3 6/6/3
f 5/5/3 11/11/3 10/10/3
f 12/12/4 13/13/4 14/14/4
f 13/13/4 12/12/4 15/15/4
f 16/16/5 17/17/5 18/18/5
f 17/17/5 16/16/5 19/19/5
f 20/20/6 21/21/6 22/22/6
f 21/21/6 20/20/6 23/23/6
f 24/24/7 25/25/7 26/26/7
f 27/27/7 25/25/7 24/24/7
f 2/2/8 5/5/8 8/8/8
f 4/4/9 1/1/9 28/28/9
f 28/28/3 9/9/3 11/11/3
f 11/11/3 6/6/3 28/28/3
f 9/9/3 28/28/3 1/1/3
f 9/9/3 1/1/3 3/3/3
f 8/8/10 3/3/10 2/2/10
f 28/28/11 6/6/11 4/4/11
f 29/29/12 30/30/12 31/31/12
f 30/30/12 29/29/12 32/32/12
f 33/33/12 34/34/12 35/35/12
f 34/34/12 33/33/12 36/36/12
f 37/37/13 38/38/13 39/39/13
f 38/38/13 37/37/13 40/40/13
f 41/41/13 42/42/13 43/43/13
f 42/42/13 41/41/13 44/44/13
f 20/45/14 26/46/14 25/47/14 23/48/14
