# Blender v2.78 (sub 0) OBJ File: 'pedestal_oot.blend'
# www.blender.org
mtllib pedestal_oot.mtl
o pedestal_Cube.001
v 0.937500 0.005000 0.718750
v 0.812500 0.255000 0.625000
v 0.062500 0.005000 0.718750
v 0.187500 0.255000 0.625000
v 0.937500 0.005000 0.281250
v 0.812500 0.255000 0.375000
v 0.062500 0.005000 0.281250
v 0.187500 0.255000 0.375000
vt 1.0000 0.5000
vt 0.8516 0.7500
vt 0.1484 0.7500
vt 0.0000 0.5000
vt 0.9790 0.7500
vt 0.9077 1.0000
vt 0.7173 1.0000
vt 0.6460 0.7500
vt 1.0000 0.5000
vt 0.8516 0.7500
vt 0.1484 0.7500
vt 0.0000 0.5000
vt 0.9790 0.7500
vt 0.9077 1.0000
vt 0.7173 1.0000
vt 0.6460 0.7500
vt 1.0000 0.2500
vt 0.0000 0.2500
vt 0.6250 0.7344
vt 0.6250 1.0000
vt 0.0000 1.0000
vt 0.0000 0.7344
vn 0.0000 0.3511 0.9363
vn -0.8944 0.4472 0.0000
vn -0.0000 0.3511 -0.9363
vn 0.8944 0.4472 0.0000
vn 0.0000 -1.0000 0.0000
vn -0.0000 1.0000 0.0000
usemtl texture
s off
f 1/1/1 2/2/1 4/3/1 3/4/1
f 3/5/2 4/6/2 8/7/2 7/8/2
f 7/9/3 8/10/3 6/11/3 5/12/3
f 5/13/4 6/14/4 2/15/4 1/16/4
f 3/17/5 7/9/5 5/12/5 1/18/5
f 8/19/6 4/20/6 2/21/6 6/22/6
